<?xml version="1.0" encoding="UTF-8"?>
<svg width="800" height="600" viewBox="0 0 800 600" xmlns="http://www.w3.org/2000/svg">
  <defs>
    <linearGradient id="stemGradient" x1="0%" y1="0%" x2="100%" y2="0%">
      <stop offset="0%" style="stop-color:#2E7D32;stop-opacity:1" />
      <stop offset="100%" style="stop-color:#1B5E20;stop-opacity:1" />
    </linearGradient>
    <linearGradient id="leafGradient" x1="0%" y1="0%" x2="100%" y2="0%">
      <stop offset="0%" style="stop-color:#66BB6A;stop-opacity:1" />
      <stop offset="100%" style="stop-color:#43A047;stop-opacity:1" />
    </linearGradient>
  </defs>

  <!-- Main Bunch -->
  <g transform="translate(400, 300)">
    <!-- Stems -->
    <path d="M -20,0 C -40,-50 -60,-60 -80,-40 C -100,-20 -90,0 -70,-10"
          fill="none" stroke="url(#stemGradient)" stroke-width="8" />
    <path d="M 0,0 C -10,-60 -30,-80 -50,-70 C -70,-60 -60,-40 -40,-50"
          fill="none" stroke="url(#stemGradient)" stroke-width="8" />
    <path d="M 20,0 C 40,-50 60,-60 80,-40 C 100,-20 90,0 70,-10"
          fill="none" stroke="url(#stemGradient)" stroke-width="8" />

    <!-- Leaves -->
    <!-- Large central leaf -->
    <path d="M -10,-20 C -50,-80 -90,-90 -120,-60 C -150,-30 -130,0 -90,-20 C -50,-40 -20,-30 -10,-20"
          fill="url(#leafGradient)" stroke="#2E7D32" stroke-width="2" />
    
    <!-- Right leaf -->
    <path d="M 10,-20 C 50,-80 90,-90 120,-60 C 150,-30 130,0 90,-20 C 50,-40 20,-30 10,-20"
          fill="url(#leafGradient)" stroke="#2E7D32" stroke-width="2" />
    
    <!-- Small leaves -->
    <path d="M -5,0 C -20,-30 -40,-35 -50,-25 C -60,-15 -50,0 -30,-10 C -10,-20 -5,-10 -5,0"
          fill="url(#leafGradient)" stroke="#2E7D32" stroke-width="2" />
    
    <path d="M 5,0 C 20,-30 40,-35 50,-25 C 60,-15 50,0 30,-10 C 10,-20 5,-10 5,0"
          fill="url(#leafGradient)" stroke="#2E7D32" stroke-width="2" />
  </g>

  <!-- Leaf veins -->
  <g transform="translate(400, 300)" opacity="0.3">
    <path d="M -90,-40 C -70,-50 -50,-45 -30,-30" fill="none" stroke="#1B5E20" stroke-width="1" />
    <path d="M 90,-40 C 70,-50 50,-45 30,-30" fill="none" stroke="#1B5E20" stroke-width="1" />
    <path d="M -40,-35 C -30,-40 -20,-38 -10,-30" fill="none" stroke="#1B5E20" stroke-width="1" />
    <path d="M 40,-35 C 30,-40 20,-38 10,-30" fill="none" stroke="#1B5E20" stroke-width="1" />
  </g>

  <!-- Highlights -->
  <g transform="translate(400, 300)" opacity="0.2">
    <path d="M -60,-50 C -40,-60 -20,-55 0,-40" fill="none" stroke="white" stroke-width="2" />
    <path d="M 60,-50 C 40,-60 20,-55 0,-40" fill="none" stroke="white" stroke-width="2" />
  </g>
</svg>