<?xml version="1.0" encoding="UTF-8"?>
<svg width="800" height="600" viewBox="0 0 800 600" xmlns="http://www.w3.org/2000/svg">
  <defs>
    <radialGradient id="orangeGradient" cx="50%" cy="50%" r="50%" fx="30%" fy="30%">
      <stop offset="0%" style="stop-color:#FFA500;stop-opacity:1" />
      <stop offset="70%" style="stop-color:#FF8C00;stop-opacity:1" />
      <stop offset="100%" style="stop-color:#FF7F00;stop-opacity:1" />
    </radialGradient>
    <filter id="texture">
      <feTurbulence type="turbulence" baseFrequency="0.05" numOctaves="2" result="turbulence"/>
      <feDisplacementMap in="SourceGraphic" in2="turbulence" scale="3" />
    </filter>
  </defs>

  <!-- Main Orange Circle -->
  <circle cx="400" cy="300" r="150"
          fill="url(#orangeGradient)"
          filter="url(#texture)"
          stroke="#FF6B00"
          stroke-width="2" />

  <!-- Dimples Texture -->
  <g opacity="0.1">
    <circle cx="350" cy="250" r="4" fill="#000" />
    <circle cx="370" cy="280" r="4" fill="#000" />
    <circle cx="390" cy="260" r="4" fill="#000" />
    <circle cx="410" cy="290" r="4" fill="#000" />
    <circle cx="430" cy="270" r="4" fill="#000" />
    <circle cx="360" cy="310" r="4" fill="#000" />
    <circle cx="380" cy="330" r="4" fill="#000" />
    <circle cx="400" cy="350" r="4" fill="#000" />
    <circle cx="420" cy="320" r="4" fill="#000" />
  </g>

  <!-- Stem -->
  <path d="M 400,150 C 390,140 380,145 375,155 C 370,165 380,170 390,165"
        fill="none"
        stroke="#4A7023"
        stroke-width="4" />

  <!-- Leaf -->
  <path d="M 385,155 C 375,145 355,150 365,170 C 375,180 395,160 385,155"
        fill="#5B8930"
        stroke="#4A7023"
        stroke-width="1" />

  <!-- Highlight -->
  <ellipse cx="350" cy="250" rx="50" ry="30"
           fill="white"
           opacity="0.2"
           transform="rotate(-30 350 250)" />
</svg>